<svg id="Travel" height="512" viewBox="0 0 1000 1000" width="512" xmlns="http://www.w3.org/2000/svg"><g><path d="m151.851 524.101c-.364 47.42 4.371 94.532 9.19 135.028 4.554 38.261 11.473 82.164 36.105 118.994 21.021 31.428 56.349 51.672 105.002 60.17 69.043 12.062 223.776 7.186 300.41.036 39.318-3.671 90.904-9.78 141.231-24.578 29.937-8.8 48.384-22.731 63.683-48.091 37.252-61.747 42.543-141.846 42.807-212.054.082-21.684-.75-42.713-2.475-62.724 38.396-16.822 59.922-54.59 53.391-96.837-8.164-52.836-56.955-67.873-98.215-65.886-10.146-19.955-27.597-39.854-44.164-52.304 1.93-10.135 2.031-22.828-6.074-35.066-3.573-5.394-8.331-9.491-13.525-12.66-10.265-6.263-36.181-14.026-55.123-14.026-19.383 0-34.687 7.536-44.404 21.547-4.59-.564-9.275-1.095-14.045-1.595-4.314-42.819-19.274-74.788-70.105-78.964-15.447-1.27-73.424-1.331-99.102 3.813-17.101 3.425-32.214 9.567-42.432 20.428-16.863 17.927-21.61 41.394-22.484 61.641-.662.103-20.152 3.269-30.998 5.329-7.488-9.268-18.572-14.461-31.823-14.461-25.981 0-55.698 15.698-57.845 40.693-52.442 23.371-70.658 51.427-81.416 72.707-44.403 1.455-79.254 30.028-89.306 73.627-5.55 24.068-1.745 48.699 10.713 69.363 9.769 16.199 24.011 28.571 41.004 35.87z" fill="#fff"/><g><path d="m881.846 397.037c-6.646-43.014-53.912-53.692-90.162-48.08-2.771-5.617-5.652-11.174-8.795-16.584-12.644-21.777-28.58-37.17-46.912-48.373.32-.418.619-.862.803-1.447 3.34-10.544 6.164-21.098-.361-30.946-6.184-9.334-21.465-12.743-31.475-15.106-23.662-5.593-45.592-4.751-54.127 20.413-2.842-.416-5.689-.825-8.568-1.201-11.647-1.516-23.348-2.737-35.077-3.731-.697-21.468-3.574-45.73-17.115-62.856-14.793-18.709-52.056-14.634-72.445-14.732-23.746-.112-71.554-.542-89.339 18.359-16.213 17.233-18.081 42.526-17.121 65.124-6.188.863-12.365 1.769-18.523 2.75-13.321 2.127-27.78 4.604-42.607 7.765-3.98-15.005-15.655-19.459-30.872-15.701-8.433 2.082-17.135 5.52-23.458 11.568-5.802 5.551-6.153 14.157-6.159 21.687-30.909 12.151-58.749 29.612-75.943 55.806-4.412 7.634-8.367 15.461-11.976 23.431-39.737-3.8-73.333 18.799-82.393 58.09-9.085 39.406 13.993 77.934 52.486 86.798-1.539 49.703 3.22 99.996 8.782 146.75 4.535 38.113 11.209 77.935 32.938 110.423 20.936 31.301 56.334 45.521 92.097 51.768 43.132 7.535 88.732 6.798 132.354 6.979 54.35.229 108.752-2.104 162.865-7.15 46.25-4.317 92.879-10.739 137.531-23.867 24.168-7.106 39.336-17.704 52.436-39.419 34.871-57.797 39.748-136.371 39.992-202.013.095-24.868-1.018-50.512-3.899-76.068 37.049-9.543 61.047-41.592 55.043-80.437zm-706.761 67.309c-16.827-2.479-24.896-16.163-21.949-32.811 3.197-18.063 16.336-24.725 32.936-23.342-5.099 18.272-8.66 37.068-10.987 56.153zm654.017-23.584c-5.006 2.195-7.636.516-8.945-5.956-3.528-17.422-8.078-34.58-13.904-51.186 17.286-3.841 32.258 4.103 37.604 22.28 4.39 14.937-1.847 29.204-14.755 34.862z" fill="#68182b"/><g fill="#d1ffff"><path d="m675.012 307.81c-20.985 7.324-29.153 27.408-21.383 47.645 7.545 14.212 23.375 23.402 39.707 18.826 15.584-4.367 30.157-19.265 28.418-36.674-2.125-21.231-26.158-36.983-46.742-29.797z"/><path d="m803.776 456.261c6.147.45 10.69-.793 9.149-9.002-2.108-11.229-4.595-22.348-7.512-33.309-45.799-.993-91.608-.965-137.414-.454 9.298 12.412 17.351 25.843 24.388 39.999 37.104-.14 74.356.056 111.389 2.766z"/><path d="m550.252 209.328c-26.806-.968-54.632-.941-81.458 1.819-2.722.28-9.184 1.241-10.622 8.575-1.876 9.573 8.218 8.46 10.829 8.423 3.003-.043 6.006-.091 9.009-.153 10.683-.221 53.683-1.439 64.497-1.859 3.701-.145 14.685.997 15.86-4.609 1.27-6.038-.98-11.937-8.115-12.196z"/><path d="m286.734 389.318c13.404-.364 31.71-3.104 31.715-19.893.005-12.666 2.541-38.332-15.564-37.908-15.681.367-39.425-.108-40.018 20.207.29 9.834-.373 23.577 5.612 32.031 3.692 5.218 12.503 5.717 18.255 5.563z"/><path d="m477.702 443.517c-67.635 21.104-97.086 88.359-81.377 154.938 13.784 49.533 58.677 79.975 110.126 73.682 51.74-6.33 91.609-42.342 102.195-93.537 7.479-36.166 6.176-78.581-22.162-106.144-27.894-27.133-70.658-40.835-108.782-28.939z"/><path d="m183.889 476.552c-.651 6.767.717 8.133 6.683 7.177 34.879-5.589 70.217-8.711 105.414-11.673 6.656-.56 8.724-1.389 11.175-7.054 5.322-12.306 11.777-23.894 19.186-34.724-46.291 4.66-94.309 7.662-139.123 19.707-1.376 8.812-2.477 17.678-3.335 26.567z"/></g><g fill="#ff821d"><path d="m750.199 304.831c-21.33-20.361-48.049-28.925-76.465-34.608-80.957-16.197-167.344-15.213-248.991-4.952-41.486 5.212-83.471 12.827-122.815 27.368-29.951 11.068-62.276 26.162-80.393 53.757-4.108 7.109-21.533 36.394-32.641 93.707 44.518-11.391 91.896-14.417 137.632-19.035 5.145-.52 7.982-2.124 11.92-6.828 35.109-41.947 86.041-69.291 142.281-75.361 45.988-4.965 96.994 1.484 136.625 26.912 14.919 9.573 27.88 20.941 39.223 33.685 3.298 3.705 5.03 4.864 10.427 4.803 42.169-.473 84.345-.523 126.51.235 7.939.143 8.786-1.896 6.64-8.769-10.238-32.776-24.757-66.861-49.953-90.914zm-422.539 64.593c-.702 9.869-3.237 18.184-12.693 22.728-9.431 4.533-20.422 7.017-30.936 6.327-7.705-.502-17.632-1.777-22.497-8.652-7.467-10.544-7.512-25.729-7.878-38.104.318-10.939 4.026-19.579 14.354-24.252 10.229-4.625 26.739-6.362 37.698-5.056 22.31 2.662 23.257 28.65 21.952 47.009zm397.147-8.002c-13.201 22.117-36.08 26.761-54.681 20.221-20.69-7.273-32.526-29.137-27.342-51.6 7.15-30.989 39.159-38.924 62.748-28.055 25.126 11.577 30.559 40.533 19.275 59.434z"/><path d="m541.872 412.091c-70.345-14.965-136.305 22.314-167.27 85.722-20.363 45.907-21.591 100.501 7.255 143.446 23.941 35.646 60.712 61.813 104.969 62.355 83.296 1.021 153.053-64.539 152.862-148.682-.146-64.261-29.835-128.38-97.816-142.841zm79.116 148.329c-8.097 61.001-45.646 112.499-110.067 120.38-57.278 7.007-107.817-23.629-123.479-79.896-16.547-70.135 16.955-154.246 94.805-167.964 79.246-13.965 149.625 45.481 138.741 127.48z"/><path d="m262.89 797.024c42.431 19.084 92.881 18.263 138.61 19.277 103.944 2.305 213.717.718 315.038-24.953 31.623-8.014 53.729-15.957 69.277-45.932 14.28-27.523 22.198-58.347 27.317-88.908-48.78 15.628-98.916 25.979-149.519 33.769-.235.035-.429-.034-.651-.028-11.742 12.904-25.281 24.492-40.582 34.308-69.224 44.401-164.563 56.495-238.224 14.989-15.455-8.709-28.879-18.901-40.42-30.263-49.029-.937-98.093-3.116-146.844-8.565 9.07 39.97 26.455 78.519 65.998 96.306z"/></g><g fill="#ff915b"><path d="m577.441 357.254c-104.19-32.976-224.817 13.459-264.854 118.517-20.874 60.255-27.197 133.193 7.554 189.945 26.015 42.483 68.067 73.231 116.861 84.196 90.952 20.438 198.168-17.459 245.548-100.674 56.674-99.524 9.075-255.842-105.109-291.984zm69.713 220.703c-10.343 83.229-94.949 148.673-178.869 133.018-100.425-18.737-140.426-130.358-101.633-217.813 33.289-68.169 111.439-111.824 186.846-87.51 73.976 23.857 102.72 99.382 93.656 172.305z"/><path d="m872.964 399.486c-9.518-36.726-43.604-46.628-77.117-41.906 2.573 5.687 4.916 11.486 7.151 17.333 22.611-5.617 45.576 6.033 50.234 30.594 4.347 22.941-7.282 42.469-29.936 46.391.555 3.384 1.082 6.772 1.573 10.166.874 6.037 2.788 5.824 8.529 3.469 25.77-10.575 47.291-36.233 39.566-66.047z"/><path d="m129.365 420.225c-7.604 32.975 4.998 65.789 35.135 77.968 5.173 2.09 7.632.705 7.973-4.871.405-6.655.933-13.292 1.605-19.9-20.509-3.193-32.735-18.84-30.499-40.21 2.539-24.285 20.847-36.69 44.024-34.102.4.045.705.215 1.052.334 2.653-8.569 5.674-17.006 9.083-25.295-30.271-1.42-61.009 14.142-68.373 46.076z"/></g><g fill="#86e4c7"><path d="m420.115 249.039c.055 5.731 1.665 7.392 7.932 6.631 56.217-6.81 113.402-8.57 169.902-4.432-.494-17.079-2.187-43.925-14.408-55.604-15.717-15.021-45.574-12.363-65.932-12.035-22.934.373-60.515-.998-79.87 13.477-15.374 11.496-17.8 33.233-17.624 51.963zm41.482-46.291c.383-.119.709-.08 1.06-.108.061-.011.102-.047.164-.056 27.654-3.293 56.708-3.575 84.511-2.571 9.953.363 16.845 1.572 20.347 11.77 2.379 6.921-.623 17.916-7.138 21.731-4.872 2.853-12.721 1.634-18.032 1.831-10.816.396-21.633.763-32.449 1.066-10.684.302-21.364.594-32.047.792-5.209.097-12.904 1.576-17.896-.328-15.567-5.932-14.44-29.11 1.48-34.127z"/><path d="m699.273 244.698c-17.162-3.304-32.462-4.11-39.233 13.672 24.677 4.142 47.685 10.371 68.05 21.133 3.146-9.956 6.533-21.449-5.941-27.519-7.255-3.529-14.97-5.763-22.876-7.286z"/><path d="m298.802 282.481c13.824-4.894 28.09-8.823 42.174-12.079-3.549-11.431-12.913-11.354-24.06-7.396-6.135 2.181-15.147 4.646-17.097 11.833-.692 2.553-.928 5.081-1.017 7.642z"/></g><g fill="#73ffdb"><path d="m815.976 637.786c7.838-57.428 8.648-117.94-.518-175.983-40.122-3.54-80.547-3.846-120.811-3.708 1.217 2.55 2.405 5.12 3.559 7.713 32.209 72.318 20.558 154.739-26.239 213.848 44.671-7.21 88.94-16.537 132.166-29.934 8.817-2.731 10.667-3.33 11.843-11.936z"/><path d="m192.982 681.134c1.512 8.235 3.848 10.396 9.783 11.026 43.887 4.666 88.019 6.735 132.135 7.718-52.118-59.271-58.378-145.548-32.103-223.789-37.724 3.159-75.669 6.314-113.053 12.406-5.647.918-7.018 2.138-7.383 8.548-.857 15.013-1.125 30.019-.947 44.867.544 45.902 3.201 93.645 11.568 139.224z"/></g><path d="m372.53 414.418c-42.502 36.177-68.563 101.67-62.477 156.826 2.649 24.009 10.803 22.833 14.226-.956 3.62-25.154 7.406-50.152 15.939-74.386 9.682-27.493 24.866-51.176 41.739-74.151 10.259-13.968 4.38-19.086-9.427-7.333z" fill="#fec771"/><path d="m361.152 306.713c27.044-3.041 54-6.957 81.197-8.839 27.938-1.933 55.514-3.826 83.153-6.831 20.037-2.179 19.71-9.762-.428-11.754-30.312-3-60.106-2.66-91.234.977-22.256 2.6-49.342 4.6-72.777 12.29-21.35 7.004-20.256 16.445.089 14.157zm197.828-14.429c8.683 1.443 17.728 1.096 17.546-5.191-.191-6.609-10.134-8.147-14.949-8.47-18.257-1.218-20.409 10.7-2.597 13.661z" fill="#fdce1a"/><g fill="#ff564d"><path d="m164.499 498.193c5.173 2.09 7.632.705 7.973-4.871.107-1.754.246-3.503.37-5.255-29.234-11.978-42.34-26.028-45.584-51.95-.956 27.152 11.977 51.866 37.241 62.076z"/><path d="m849.914 444.91c-7.995 5.802-16.817 9.096-25.912 11.542.291 1.87.597 3.738.868 5.61.874 6.037 2.788 5.824 8.529 3.469 22.4-9.191 41.58-29.785 41.139-54.596-4.804 13.535-12.823 25.414-24.624 33.975z"/><path d="m636.497 679.202c-69.562 72.88-218.659 88.534-305.689 2.108 26.137 34.375 63.595 59.028 106.194 68.602 90.952 20.438 198.168-17.459 245.548-100.674 46.499-81.656 22.792-201.526-50.278-261.904 52.558 64.013 100.591 190.902 4.225 291.868z"/></g><g fill="#6db7a9"><path d="m202.764 692.16c4.812.512 9.627.986 14.444 1.438-2.927-5.229-5.79-10.45-8.582-15.576-8.504-15.605-15.843-31.769-22.761-48.12 1.714 17.238 4.022 34.384 7.115 51.232 1.514 8.235 3.849 10.396 9.784 11.026z"/><path d="m420.115 249.039c.055 5.731 1.665 7.392 7.932 6.631 56.217-6.81 113.402-8.57 169.902-4.432-.224-7.718-.695-17.43-2.27-26.835-7.04 10.445-18.555 13.623-26.504 15.451-19.789 4.549-114.654 6.577-124.897 5.789-13.134-1.011-20.447-4.479-23.542-12.055-.524 5.196-.668 10.432-.621 15.451z"/><path d="m674.438 261.087c19.25 4.062 37.304 9.776 53.651 18.415 1.128-3.569 2.282-7.335 2.73-10.978-17.117-4.972-37.15-8.27-56.381-7.437z"/><path d="m804.133 649.722c8.817-2.731 10.667-3.33 11.843-11.937 1.343-9.839 2.474-19.771 3.39-29.763-8.381 15-16.865 29.941-25.505 44.792 3.429-1.008 6.855-2.033 10.272-3.092z"/><path d="m340.976 270.402c-.637-2.051-1.463-3.726-2.451-5.08-13.649 6.285-33.962 11.665-39.406 13.115-.175 1.345-.27 2.69-.317 4.044 13.824-4.894 28.09-8.824 42.174-12.079z"/></g><g fill="#acd0e0"><path d="m693.336 374.281c15.584-4.367 30.157-19.265 28.418-36.674-1.426-14.25-12.726-26.018-26.223-30.053 6.817 5.37 12.559 15.237 13.916 25.432 3.217 24.134-22.152 34.488-34.453 33.67-9.094-.604-16.353-5.854-22.287-13.868.28.888.58 1.777.922 2.667 7.545 14.211 23.375 23.402 39.707 18.826z"/><path d="m777.832 442.813c-31.929-1.488-62.8-2.39-92.613-2.809 2.496 4.417 4.892 8.912 7.168 13.491 37.104-.141 74.356.056 111.389 2.766 6.147.45 10.69-.793 9.149-9.002-1.159-6.175-2.445-12.313-3.843-18.414-.677.754-1.366 1.5-2.088 2.221-7.811 7.814-18.344 12.251-29.162 11.747z"/><path d="m266.425 379.37c-.098-.012-.214-.027-.319-.041.647 1.582 1.417 3.076 2.373 4.425 3.692 5.218 12.503 5.717 18.255 5.563 13.404-.364 31.71-3.104 31.715-19.893.005-12.666 2.541-38.332-15.564-37.908-.695.016-1.411.031-2.135.046 14.577 15.439-.284 51.901-34.325 47.808z"/><path d="m506.451 672.136c51.74-6.33 91.609-42.342 102.195-93.537 7.479-36.166 6.176-78.581-22.162-106.144-15.268-14.85-34.991-25.662-55.969-30.471 16.308 9.159 30.579 21.468 42.052 38.685 24.877 37.329 20.728 83.577-1.998 120.718-25.01 40.877-67.981 52.881-112.699 41.651-28.719-7.21-45.817-28.24-62.676-49.798.349 1.737.721 3.476 1.131 5.214 13.785 49.534 58.677 79.975 110.126 73.682z"/><path d="m190.572 483.728c34.879-5.589 70.217-8.711 105.414-11.673 6.656-.56 8.724-1.389 11.175-7.054.79-1.826 1.612-3.63 2.451-5.424-37.571 4.277-70.264 8.529-97.886 11.93-6.664.82-19.007 1.226-27.049-2.445-.28 2.494-.546 4.99-.787 7.489-.652 6.767.716 8.134 6.682 7.177z"/></g><g><path d="m423.293 554.442c6.75-14.678 31.709-59.903 63.259-80.093 8.993-5.755 3.612-12.877-7.05-11.31-34 5-66.333 41.522-69.367 88.511-.73 11.306 5.895 18.688 13.158 2.892z" fill="#ecfffe"/></g><g fill="#f26200"><path d="m381.858 641.259c23.941 35.646 60.712 61.813 104.969 62.355 83.296 1.021 153.053-64.539 152.862-148.682-.1-43.589-13.798-87.106-43.813-115.11 1.76 2.279 3.476 4.592 5.134 6.95 12.854 18.278 20.428 38.899 25.559 60.519 6.047 25.48 7.324 51.453 1.435 77.098-5.814 25.316-18.584 48.605-36.872 67.039-36.735 37.025-93.772 50.395-143.098 33.936-45.65-15.232-74.449-57.413-84.125-103.001-2.209-10.411-3.311-21.006-3.427-31.619-3.095 31.399 3.093 63.297 21.376 90.515z"/><path d="m262.89 797.024c42.431 19.084 92.881 18.263 138.61 19.277 103.944 2.305 213.717.718 315.038-24.953 31.623-8.014 53.729-15.957 69.277-45.932 14.28-27.523 22.198-58.347 27.317-88.908-8.586 2.751-17.215 5.329-25.88 7.768-13.167 22.784-26 46.955-44.486 65.788-37.99 38.707-94.963 50.639-147.035 54.437-60.674 4.424-122.134 5.339-182.922 3.262-27.988-.959-56.288-2.139-83.972-6.621-24.45-3.957-49.354-11.972-68.213-28.661-15.325-13.563-27.277-31.124-37.85-49.173-8.636-.771-17.264-1.627-25.881-2.59 9.069 39.97 26.454 78.519 65.997 96.306z"/></g></g></g></svg>